<svg xmlns="http://www.w3.org/2000/svg" version="1.1" xmlns:xlink="http://www.w3.org/1999/xlink" xmlns:svgjs="http://svgjs.dev/svgjs" width="1000" height="623" viewBox="0 0 1000 623"><g transform="matrix(1,0,0,1,-0.6060606060606233,0.2522267206477409)"><svg viewBox="0 0 396 247" data-background-color="#ffffff" preserveAspectRatio="xMidYMid meet" height="623" width="1000" xmlns="http://www.w3.org/2000/svg" xmlns:xlink="http://www.w3.org/1999/xlink"><g id="tight-bounds" transform="matrix(1,0,0,1,0.2400000000000091,-0.09999999999999432)"><svg viewBox="0 0 395.52 247.2" height="247.2" width="395.52"><g><svg></svg></g><g><svg viewBox="0 0 395.52 247.2" height="247.2" width="395.52"><g transform="matrix(1,0,0,1,75.54432,59.84310595150624)"><svg viewBox="0 0 244.43135999999998 127.51378809698751" height="127.51378809698751" width="244.43135999999998"><g><svg viewBox="0 0 244.43135999999998 127.51378809698751" height="127.51378809698751" width="244.43135999999998"><g><svg viewBox="0 0 244.43135999999998 127.51378809698751" height="127.51378809698751" width="244.43135999999998"><g><svg viewBox="0 0 244.43135999999998 127.51378809698751" height="127.51378809698751" width="244.43135999999998"><g id="textblocktransform"><svg viewBox="0 0 244.43135999999998 127.51378809698751" height="127.51378809698751" width="244.43135999999998" id="textblock"><g><svg viewBox="0 0 244.43135999999998 127.51378809698751" height="127.51378809698751" width="244.43135999999998"><g transform="matrix(1,0,0,1,0,0)"><svg width="244.43135999999998" viewBox="4.25 -35.5 68.05000305175781 35.5" height="127.51378809698751" data-palette-color="#bb84e8"><path d="M8.75 0L4.25 0 4.25-35.5 19.45-35.5Q21.8-35.5 23.75-34.52 25.7-33.55 27.15-31.93 28.6-30.3 29.4-28.28 30.2-26.25 30.2-24.15L30.2-24.15Q30.2-21.7 29.28-19.5 28.35-17.3 26.68-15.75 25-14.2 22.75-13.6L22.75-13.6 31.35 0 26.25 0 18.15-12.75 8.75-12.75 8.75 0ZM8.75-31.5L8.75-16.75 19.5-16.75Q21.35-16.75 22.73-17.78 24.1-18.8 24.88-20.5 25.65-22.2 25.65-24.15L25.65-24.15Q25.65-26.15 24.75-27.83 23.85-29.5 22.4-30.5 20.95-31.5 19.2-31.5L19.2-31.5 8.75-31.5ZM72.3 0L67.8 0 67.8-27.1 56.1-6.25 53.35-6.25 41.6-27.1 41.6 0 37.1 0 37.1-35.5 41.85-35.5 54.7-12.45 67.6-35.5 72.3-35.5 72.3 0Z" opacity="1" transform="matrix(1,0,0,1,0,0)" fill="#bb84e8" class="wordmark-text-0" data-fill-palette-color="primary" id="text-0"></path></svg></g></svg></g></svg></g></svg></g></svg></g></svg></g></svg></g><path d="M151.659 53.843L151.659 7.297 384.264 7.297 384.264 239.903 151.659 239.903 151.659 193.357 163.158 193.357 163.158 228.403 372.765 228.403 372.765 18.797 163.158 18.797 163.158 53.843Z" fill="#bb84e8" stroke="transparent" data-fill-palette-color="primary"></path></svg></g><defs></defs></svg><rect width="395.52" height="247.2" fill="none" stroke="none" visibility="hidden"></rect></g></svg></g></svg>